
<svg width="1600" height="900" viewBox="0 0 1600 900" xmlns="http://www.w3.org/2000/svg">

  <!-- Background -->
  <rect width="1600" height="900" fill="#f5f5f5"/>

  <!-- Rooms / Zones -->
  <rect x="50" y="50" width="300" height="200" fill="#eeeeee" stroke="#6f7d8a" stroke-width="6"/>
  <rect x="380" y="50" width="350" height="150" fill="#eeeeee" stroke="#6f7d8a" stroke-width="6"/>
  <rect x="760" y="50" width="300" height="200" fill="#eeeeee" stroke="#6f7d8a" stroke-width="6"/>
  <rect x="1090" y="50" width="450" height="250" fill="#eeeeee" stroke="#6f7d8a" stroke-width="6"/>

  <rect x="50" y="300" width="250" height="500" fill="#eeeeee" stroke="#6f7d8a" stroke-width="6"/>
  <rect x="320" y="300" width="450" height="350" fill="#eeeeee" stroke="#6f7d8a" stroke-width="6"/>
  <rect x="800" y="300" width="280" height="300" fill="#eeeeee" stroke="#6f7d8a" stroke-width="6"/>
  <rect x="1100" y="330" width="350" height="470" fill="#eeeeee" stroke="#6f7d8a" stroke-width="6"/>

  <!-- Decorative / Placeholder rectangles (representing shops/rooms) -->
  <rect x="130" y="600" width="80" height="80" fill="#d8c4a7"/>
  <rect x="360" y="530" width="80" height="80" fill="#d8c4a7"/>
  <rect x="600" y="550" width="80" height="80" fill="#d8c4a7"/>
  <rect x="870" y="420" width="80" height="80" fill="#d8c4a7"/>
  <rect x="1220" y="620" width="80" height="80" fill="#d8c4a7"/>
  <rect x="1400" y="200" width="80" height="80" fill="#d8c4a7"/>

  <!-- Icons (simple vector icons, no PNGs) -->
  <!-- Toilet -->
  <circle cx="180" cy="150" r="40" fill="#207ce5"/>
  <rect x="150" y="130" width="60" height="40" fill="white"/>

  <!-- Shopping cart (placeholder block icon) -->
  <rect x="1250" y="150" width="100" height="100" fill="#ff3b30"/>

  <!-- Airplane Icons -->
  <polygon points="1430,700 1480,720 1430,740" fill="#333"/>
  <polygon points="1300,120 1350,140 1300,160" fill="#333"/>

</svg>
