<?xml version="1.0" encoding="us-ascii" standalone="no"?><svg xmlns="http://www.w3.org/2000/svg" xmlns:xlink="http://www.w3.org/1999/xlink" contentStyleType="text/css" height="560px" preserveAspectRatio="none" style="width:639px;height:560px;background:#FFFFFF;" version="1.1" viewBox="0 0 639 560" width="639px" zoomAndPan="magnify"><defs/><g><!--class Product--><g id="elem_Product"><rect codeLine="3" fill="#F1F1F1" height="188.875" id="Product" rx="2.5" ry="2.5" style="stroke:#181818;stroke-width:0.5;" width="179" x="273" y="7"/><ellipse cx="333.75" cy="23" fill="#ADD1B2" rx="11" ry="11" style="stroke:#181818;stroke-width:1.0;"/><path d="M332.6094,23.7969 L332.6094,26.2969 L336.9375,26.2969 L336.9375,25.375 Q336.9375,24.7656 337.1719,24.5 Q337.4219,24.2344 337.7969,24.2344 Q338.1719,24.2344 338.4063,24.5 Q338.6406,24.7656 338.6406,25.375 L338.6406,28 L330.6406,28 Q330.0156,28 329.75,27.7656 Q329.5,27.5313 329.5,27.1406 Q329.5,26.7656 329.7656,26.5313 Q330.0313,26.2969 330.6406,26.2969 L330.9063,26.2969 L330.9063,19.6406 L330.6406,19.6406 Q330.0156,19.6406 329.75,19.4063 Q329.5,19.1719 329.5,18.7813 Q329.5,18.4063 329.75,18.1719 Q330.0156,17.9375 330.6406,17.9375 L338.2656,17.9375 L338.2656,20.5313 Q338.2656,21.1406 338.0313,21.4063 Q337.8125,21.6563 337.4219,21.6563 Q337.0469,21.6563 336.8125,21.4063 Q336.5781,21.1406 336.5781,20.5313 L336.5781,19.6406 L332.6094,19.6406 L332.6094,22.0938 L334.0938,22.0938 Q334.0938,21.4375 334.2188,21.25 Q334.4844,20.8438 334.9531,20.8438 Q335.3281,20.8438 335.5625,21.1094 Q335.7969,21.3594 335.7969,21.9688 L335.7969,23.9375 Q335.7969,24.4844 335.6719,24.6719 Q335.4063,25.0625 334.9531,25.0625 Q334.4844,25.0625 334.2188,24.6563 Q334.0938,24.4688 334.0938,23.7969 L332.6094,23.7969 Z " fill="#000000"/><text fill="#000000" font-family="sans-serif" font-size="14" lengthAdjust="spacing" textLength="49" x="354.25" y="28.7285">Product</text><line style="stroke:#181818;stroke-width:0.5;" x1="274" x2="451" y1="39" y2="39"/><ellipse cx="284" cy="53.3047" fill="none" rx="3" ry="3" style="stroke:#038048;stroke-width:1.0;"/><text fill="#000000" font-family="sans-serif" font-size="14" lengthAdjust="spacing" textLength="54" x="293" y="57.5332">Id: string</text><ellipse cx="284" cy="70.9141" fill="none" rx="3" ry="3" style="stroke:#038048;stroke-width:1.0;"/><text fill="#000000" font-family="sans-serif" font-size="14" lengthAdjust="spacing" textLength="79" x="293" y="75.1426">Name: string</text><ellipse cx="284" cy="88.5234" fill="none" rx="3" ry="3" style="stroke:#038048;stroke-width:1.0;"/><text fill="#000000" font-family="sans-serif" font-size="14" lengthAdjust="spacing" textLength="86" x="293" y="92.752">PriceId: string</text><ellipse cx="284" cy="106.1328" fill="none" rx="3" ry="3" style="stroke:#038048;stroke-width:1.0;"/><text fill="#000000" font-family="sans-serif" font-size="14" lengthAdjust="spacing" textLength="112" x="293" y="110.3613">CategoryId: string</text><ellipse cx="284" cy="123.7422" fill="none" rx="3" ry="3" style="stroke:#038048;stroke-width:1.0;"/><text fill="#000000" font-family="sans-serif" font-size="14" lengthAdjust="spacing" textLength="89" x="293" y="127.9707">StockId: string</text><ellipse cx="284" cy="141.3516" fill="none" rx="3" ry="3" style="stroke:#038048;stroke-width:1.0;"/><text fill="#000000" font-family="sans-serif" font-size="14" lengthAdjust="spacing" textLength="114" x="293" y="145.5801">Description: string</text><ellipse cx="284" cy="158.9609" fill="none" rx="3" ry="3" style="stroke:#038048;stroke-width:1.0;"/><text fill="#000000" font-family="sans-serif" font-size="14" lengthAdjust="spacing" textLength="153" x="293" y="163.1895">CreationDate: DateTime</text><ellipse cx="284" cy="176.5703" fill="none" rx="3" ry="3" style="stroke:#038048;stroke-width:1.0;"/><text fill="#000000" font-family="sans-serif" font-size="14" lengthAdjust="spacing" textLength="140" x="293" y="180.7988">Images: List&lt;ImageId&gt;</text><line style="stroke:#181818;stroke-width:0.5;" x1="274" x2="451" y1="187.875" y2="187.875"/></g><!--class Stock--><g id="elem_Stock"><rect codeLine="14" fill="#F1F1F1" height="118.4375" id="Stock" rx="2.5" ry="2.5" style="stroke:#181818;stroke-width:0.5;" width="114" x="72.5" y="274"/><ellipse cx="108.65" cy="290" fill="#ADD1B2" rx="11" ry="11" style="stroke:#181818;stroke-width:1.0;"/><path d="M107.5094,290.7969 L107.5094,293.2969 L111.8375,293.2969 L111.8375,292.375 Q111.8375,291.7656 112.0719,291.5 Q112.3219,291.2344 112.6969,291.2344 Q113.0719,291.2344 113.3063,291.5 Q113.5406,291.7656 113.5406,292.375 L113.5406,295 L105.5406,295 Q104.9156,295 104.65,294.7656 Q104.4,294.5313 104.4,294.1406 Q104.4,293.7656 104.6656,293.5313 Q104.9313,293.2969 105.5406,293.2969 L105.8063,293.2969 L105.8063,286.6406 L105.5406,286.6406 Q104.9156,286.6406 104.65,286.4063 Q104.4,286.1719 104.4,285.7813 Q104.4,285.4063 104.65,285.1719 Q104.9156,284.9375 105.5406,284.9375 L113.1656,284.9375 L113.1656,287.5313 Q113.1656,288.1406 112.9313,288.4063 Q112.7125,288.6563 112.3219,288.6563 Q111.9469,288.6563 111.7125,288.4063 Q111.4781,288.1406 111.4781,287.5313 L111.4781,286.6406 L107.5094,286.6406 L107.5094,289.0938 L108.9938,289.0938 Q108.9938,288.4375 109.1188,288.25 Q109.3844,287.8438 109.8531,287.8438 Q110.2281,287.8438 110.4625,288.1094 Q110.6969,288.3594 110.6969,288.9688 L110.6969,290.9375 Q110.6969,291.4844 110.5719,291.6719 Q110.3063,292.0625 109.8531,292.0625 Q109.3844,292.0625 109.1188,291.6563 Q108.9938,291.4688 108.9938,290.7969 L107.5094,290.7969 Z " fill="#000000"/><text fill="#000000" font-family="sans-serif" font-size="14" lengthAdjust="spacing" textLength="35" x="127.35" y="295.7285">Stock</text><line style="stroke:#181818;stroke-width:0.5;" x1="73.5" x2="185.5" y1="306" y2="306"/><ellipse cx="83.5" cy="320.3047" fill="none" rx="3" ry="3" style="stroke:#038048;stroke-width:1.0;"/><text fill="#000000" font-family="sans-serif" font-size="14" lengthAdjust="spacing" textLength="54" x="92.5" y="324.5332">Id: string</text><ellipse cx="83.5" cy="337.9141" fill="none" rx="3" ry="3" style="stroke:#038048;stroke-width:1.0;"/><text fill="#000000" font-family="sans-serif" font-size="14" lengthAdjust="spacing" textLength="88" x="92.5" y="342.1426">ColorId: string</text><ellipse cx="83.5" cy="355.5234" fill="none" rx="3" ry="3" style="stroke:#038048;stroke-width:1.0;"/><text fill="#000000" font-family="sans-serif" font-size="14" lengthAdjust="spacing" textLength="80" x="92.5" y="359.752">SizeId: string</text><ellipse cx="83.5" cy="373.1328" fill="none" rx="3" ry="3" style="stroke:#038048;stroke-width:1.0;"/><text fill="#000000" font-family="sans-serif" font-size="14" lengthAdjust="spacing" textLength="76" x="92.5" y="377.3613">Quantity: int</text><line style="stroke:#181818;stroke-width:0.5;" x1="73.5" x2="185.5" y1="384.4375" y2="384.4375"/></g><!--class Color--><g id="elem_Color"><rect codeLine="21" fill="#F1F1F1" height="83.2188" id="Color" rx="2.5" ry="2.5" style="stroke:#181818;stroke-width:0.5;" width="105" x="7" y="470"/><ellipse cx="39.55" cy="486" fill="#ADD1B2" rx="11" ry="11" style="stroke:#181818;stroke-width:1.0;"/><path d="M38.4094,486.7969 L38.4094,489.2969 L42.7375,489.2969 L42.7375,488.375 Q42.7375,487.7656 42.9719,487.5 Q43.2219,487.2344 43.5969,487.2344 Q43.9719,487.2344 44.2063,487.5 Q44.4406,487.7656 44.4406,488.375 L44.4406,491 L36.4406,491 Q35.8156,491 35.55,490.7656 Q35.3,490.5313 35.3,490.1406 Q35.3,489.7656 35.5656,489.5313 Q35.8313,489.2969 36.4406,489.2969 L36.7063,489.2969 L36.7063,482.6406 L36.4406,482.6406 Q35.8156,482.6406 35.55,482.4063 Q35.3,482.1719 35.3,481.7813 Q35.3,481.4063 35.55,481.1719 Q35.8156,480.9375 36.4406,480.9375 L44.0656,480.9375 L44.0656,483.5313 Q44.0656,484.1406 43.8313,484.4063 Q43.6125,484.6563 43.2219,484.6563 Q42.8469,484.6563 42.6125,484.4063 Q42.3781,484.1406 42.3781,483.5313 L42.3781,482.6406 L38.4094,482.6406 L38.4094,485.0938 L39.8938,485.0938 Q39.8938,484.4375 40.0188,484.25 Q40.2844,483.8438 40.7531,483.8438 Q41.1281,483.8438 41.3625,484.1094 Q41.5969,484.3594 41.5969,484.9688 L41.5969,486.9375 Q41.5969,487.4844 41.4719,487.6719 Q41.2063,488.0625 40.7531,488.0625 Q40.2844,488.0625 40.0188,487.6563 Q39.8938,487.4688 39.8938,486.7969 L38.4094,486.7969 Z " fill="#000000"/><text fill="#000000" font-family="sans-serif" font-size="14" lengthAdjust="spacing" textLength="34" x="57.45" y="491.7285">Color</text><line style="stroke:#181818;stroke-width:0.5;" x1="8" x2="111" y1="502" y2="502"/><ellipse cx="18" cy="516.3047" fill="none" rx="3" ry="3" style="stroke:#038048;stroke-width:1.0;"/><text fill="#000000" font-family="sans-serif" font-size="14" lengthAdjust="spacing" textLength="54" x="27" y="520.5332">Id: string</text><ellipse cx="18" cy="533.9141" fill="none" rx="3" ry="3" style="stroke:#038048;stroke-width:1.0;"/><text fill="#000000" font-family="sans-serif" font-size="14" lengthAdjust="spacing" textLength="79" x="27" y="538.1426">Name: string</text><line style="stroke:#181818;stroke-width:0.5;" x1="8" x2="111" y1="545.2188" y2="545.2188"/></g><!--class Size--><g id="elem_Size"><rect codeLine="26" fill="#F1F1F1" height="83.2188" id="Size" rx="2.5" ry="2.5" style="stroke:#181818;stroke-width:0.5;" width="105" x="147" y="470"/><ellipse cx="183.15" cy="486" fill="#ADD1B2" rx="11" ry="11" style="stroke:#181818;stroke-width:1.0;"/><path d="M182.0094,486.7969 L182.0094,489.2969 L186.3375,489.2969 L186.3375,488.375 Q186.3375,487.7656 186.5719,487.5 Q186.8219,487.2344 187.1969,487.2344 Q187.5719,487.2344 187.8063,487.5 Q188.0406,487.7656 188.0406,488.375 L188.0406,491 L180.0406,491 Q179.4156,491 179.15,490.7656 Q178.9,490.5313 178.9,490.1406 Q178.9,489.7656 179.1656,489.5313 Q179.4313,489.2969 180.0406,489.2969 L180.3063,489.2969 L180.3063,482.6406 L180.0406,482.6406 Q179.4156,482.6406 179.15,482.4063 Q178.9,482.1719 178.9,481.7813 Q178.9,481.4063 179.15,481.1719 Q179.4156,480.9375 180.0406,480.9375 L187.6656,480.9375 L187.6656,483.5313 Q187.6656,484.1406 187.4313,484.4063 Q187.2125,484.6563 186.8219,484.6563 Q186.4469,484.6563 186.2125,484.4063 Q185.9781,484.1406 185.9781,483.5313 L185.9781,482.6406 L182.0094,482.6406 L182.0094,485.0938 L183.4938,485.0938 Q183.4938,484.4375 183.6188,484.25 Q183.8844,483.8438 184.3531,483.8438 Q184.7281,483.8438 184.9625,484.1094 Q185.1969,484.3594 185.1969,484.9688 L185.1969,486.9375 Q185.1969,487.4844 185.0719,487.6719 Q184.8063,488.0625 184.3531,488.0625 Q183.8844,488.0625 183.6188,487.6563 Q183.4938,487.4688 183.4938,486.7969 L182.0094,486.7969 Z " fill="#000000"/><text fill="#000000" font-family="sans-serif" font-size="14" lengthAdjust="spacing" textLength="26" x="201.85" y="491.7285">Size</text><line style="stroke:#181818;stroke-width:0.5;" x1="148" x2="251" y1="502" y2="502"/><ellipse cx="158" cy="516.3047" fill="none" rx="3" ry="3" style="stroke:#038048;stroke-width:1.0;"/><text fill="#000000" font-family="sans-serif" font-size="14" lengthAdjust="spacing" textLength="54" x="167" y="520.5332">Id: string</text><ellipse cx="158" cy="533.9141" fill="none" rx="3" ry="3" style="stroke:#038048;stroke-width:1.0;"/><text fill="#000000" font-family="sans-serif" font-size="14" lengthAdjust="spacing" textLength="79" x="167" y="538.1426">Name: string</text><line style="stroke:#181818;stroke-width:0.5;" x1="148" x2="251" y1="545.2188" y2="545.2188"/></g><!--class Price--><g id="elem_Price"><rect codeLine="31" fill="#F1F1F1" height="100.8281" id="Price" rx="2.5" ry="2.5" style="stroke:#181818;stroke-width:0.5;" width="130" x="221.5" y="282.5"/><ellipse cx="266.25" cy="298.5" fill="#ADD1B2" rx="11" ry="11" style="stroke:#181818;stroke-width:1.0;"/><path d="M265.1094,299.2969 L265.1094,301.7969 L269.4375,301.7969 L269.4375,300.875 Q269.4375,300.2656 269.6719,300 Q269.9219,299.7344 270.2969,299.7344 Q270.6719,299.7344 270.9063,300 Q271.1406,300.2656 271.1406,300.875 L271.1406,303.5 L263.1406,303.5 Q262.5156,303.5 262.25,303.2656 Q262,303.0313 262,302.6406 Q262,302.2656 262.2656,302.0313 Q262.5313,301.7969 263.1406,301.7969 L263.4063,301.7969 L263.4063,295.1406 L263.1406,295.1406 Q262.5156,295.1406 262.25,294.9063 Q262,294.6719 262,294.2813 Q262,293.9063 262.25,293.6719 Q262.5156,293.4375 263.1406,293.4375 L270.7656,293.4375 L270.7656,296.0313 Q270.7656,296.6406 270.5313,296.9063 Q270.3125,297.1563 269.9219,297.1563 Q269.5469,297.1563 269.3125,296.9063 Q269.0781,296.6406 269.0781,296.0313 L269.0781,295.1406 L265.1094,295.1406 L265.1094,297.5938 L266.5938,297.5938 Q266.5938,296.9375 266.7188,296.75 Q266.9844,296.3438 267.4531,296.3438 Q267.8281,296.3438 268.0625,296.6094 Q268.2969,296.8594 268.2969,297.4688 L268.2969,299.4375 Q268.2969,299.9844 268.1719,300.1719 Q267.9063,300.5625 267.4531,300.5625 Q266.9844,300.5625 266.7188,300.1563 Q266.5938,299.9688 266.5938,299.2969 L265.1094,299.2969 Z " fill="#000000"/><text fill="#000000" font-family="sans-serif" font-size="14" lengthAdjust="spacing" textLength="32" x="286.75" y="304.2285">Price</text><line style="stroke:#181818;stroke-width:0.5;" x1="222.5" x2="350.5" y1="314.5" y2="314.5"/><ellipse cx="232.5" cy="328.8047" fill="none" rx="3" ry="3" style="stroke:#038048;stroke-width:1.0;"/><text fill="#000000" font-family="sans-serif" font-size="14" lengthAdjust="spacing" textLength="54" x="241.5" y="333.0332">Id: string</text><ellipse cx="232.5" cy="346.4141" fill="none" rx="3" ry="3" style="stroke:#038048;stroke-width:1.0;"/><text fill="#000000" font-family="sans-serif" font-size="14" lengthAdjust="spacing" textLength="104" x="241.5" y="350.6426">Amount: decimal</text><ellipse cx="232.5" cy="364.0234" fill="none" rx="3" ry="3" style="stroke:#038048;stroke-width:1.0;"/><text fill="#000000" font-family="sans-serif" font-size="14" lengthAdjust="spacing" textLength="101" x="241.5" y="368.252">Currency: string</text><line style="stroke:#181818;stroke-width:0.5;" x1="222.5" x2="350.5" y1="375.3281" y2="375.3281"/></g><!--class Category--><g id="elem_Category"><rect codeLine="37" fill="#F1F1F1" height="83.2188" id="Category" rx="2.5" ry="2.5" style="stroke:#181818;stroke-width:0.5;" width="105" x="387" y="291.5"/><ellipse cx="408.75" cy="307.5" fill="#ADD1B2" rx="11" ry="11" style="stroke:#181818;stroke-width:1.0;"/><path d="M407.6094,308.2969 L407.6094,310.7969 L411.9375,310.7969 L411.9375,309.875 Q411.9375,309.2656 412.1719,309 Q412.4219,308.7344 412.7969,308.7344 Q413.1719,308.7344 413.4063,309 Q413.6406,309.2656 413.6406,309.875 L413.6406,312.5 L405.6406,312.5 Q405.0156,312.5 404.75,312.2656 Q404.5,312.0313 404.5,311.6406 Q404.5,311.2656 404.7656,311.0313 Q405.0313,310.7969 405.6406,310.7969 L405.9063,310.7969 L405.9063,304.1406 L405.6406,304.1406 Q405.0156,304.1406 404.75,303.9063 Q404.5,303.6719 404.5,303.2813 Q404.5,302.9063 404.75,302.6719 Q405.0156,302.4375 405.6406,302.4375 L413.2656,302.4375 L413.2656,305.0313 Q413.2656,305.6406 413.0313,305.9063 Q412.8125,306.1563 412.4219,306.1563 Q412.0469,306.1563 411.8125,305.9063 Q411.5781,305.6406 411.5781,305.0313 L411.5781,304.1406 L407.6094,304.1406 L407.6094,306.5938 L409.0938,306.5938 Q409.0938,305.9375 409.2188,305.75 Q409.4844,305.3438 409.9531,305.3438 Q410.3281,305.3438 410.5625,305.6094 Q410.7969,305.8594 410.7969,306.4688 L410.7969,308.4375 Q410.7969,308.9844 410.6719,309.1719 Q410.4063,309.5625 409.9531,309.5625 Q409.4844,309.5625 409.2188,309.1563 Q409.0938,308.9688 409.0938,308.2969 L407.6094,308.2969 Z " fill="#000000"/><text fill="#000000" font-family="sans-serif" font-size="14" lengthAdjust="spacing" textLength="58" x="424.25" y="313.2285">Category</text><line style="stroke:#181818;stroke-width:0.5;" x1="388" x2="491" y1="323.5" y2="323.5"/><ellipse cx="398" cy="337.8047" fill="none" rx="3" ry="3" style="stroke:#038048;stroke-width:1.0;"/><text fill="#000000" font-family="sans-serif" font-size="14" lengthAdjust="spacing" textLength="54" x="407" y="342.0332">Id: string</text><ellipse cx="398" cy="355.4141" fill="none" rx="3" ry="3" style="stroke:#038048;stroke-width:1.0;"/><text fill="#000000" font-family="sans-serif" font-size="14" lengthAdjust="spacing" textLength="79" x="407" y="359.6426">Name: string</text><line style="stroke:#181818;stroke-width:0.5;" x1="388" x2="491" y1="366.7188" y2="366.7188"/></g><!--class Image--><g id="elem_Image"><rect codeLine="42" fill="#F1F1F1" height="100.8281" id="Image" rx="2.5" ry="2.5" style="stroke:#181818;stroke-width:0.5;" width="105" x="527" y="282.5"/><ellipse cx="557.75" cy="298.5" fill="#ADD1B2" rx="11" ry="11" style="stroke:#181818;stroke-width:1.0;"/><path d="M556.6094,299.2969 L556.6094,301.7969 L560.9375,301.7969 L560.9375,300.875 Q560.9375,300.2656 561.1719,300 Q561.4219,299.7344 561.7969,299.7344 Q562.1719,299.7344 562.4063,300 Q562.6406,300.2656 562.6406,300.875 L562.6406,303.5 L554.6406,303.5 Q554.0156,303.5 553.75,303.2656 Q553.5,303.0313 553.5,302.6406 Q553.5,302.2656 553.7656,302.0313 Q554.0313,301.7969 554.6406,301.7969 L554.9063,301.7969 L554.9063,295.1406 L554.6406,295.1406 Q554.0156,295.1406 553.75,294.9063 Q553.5,294.6719 553.5,294.2813 Q553.5,293.9063 553.75,293.6719 Q554.0156,293.4375 554.6406,293.4375 L562.2656,293.4375 L562.2656,296.0313 Q562.2656,296.6406 562.0313,296.9063 Q561.8125,297.1563 561.4219,297.1563 Q561.0469,297.1563 560.8125,296.9063 Q560.5781,296.6406 560.5781,296.0313 L560.5781,295.1406 L556.6094,295.1406 L556.6094,297.5938 L558.0938,297.5938 Q558.0938,296.9375 558.2188,296.75 Q558.4844,296.3438 558.9531,296.3438 Q559.3281,296.3438 559.5625,296.6094 Q559.7969,296.8594 559.7969,297.4688 L559.7969,299.4375 Q559.7969,299.9844 559.6719,300.1719 Q559.4063,300.5625 558.9531,300.5625 Q558.4844,300.5625 558.2188,300.1563 Q558.0938,299.9688 558.0938,299.2969 L556.6094,299.2969 Z " fill="#000000"/><text fill="#000000" font-family="sans-serif" font-size="14" lengthAdjust="spacing" textLength="38" x="575.25" y="304.2285">Image</text><line style="stroke:#181818;stroke-width:0.5;" x1="528" x2="631" y1="314.5" y2="314.5"/><ellipse cx="538" cy="328.8047" fill="none" rx="3" ry="3" style="stroke:#038048;stroke-width:1.0;"/><text fill="#000000" font-family="sans-serif" font-size="14" lengthAdjust="spacing" textLength="54" x="547" y="333.0332">Id: string</text><ellipse cx="538" cy="346.4141" fill="none" rx="3" ry="3" style="stroke:#038048;stroke-width:1.0;"/><text fill="#000000" font-family="sans-serif" font-size="14" lengthAdjust="spacing" textLength="79" x="547" y="350.6426">Name: string</text><ellipse cx="538" cy="364.0234" fill="none" rx="3" ry="3" style="stroke:#038048;stroke-width:1.0;"/><text fill="#000000" font-family="sans-serif" font-size="14" lengthAdjust="spacing" textLength="60" x="547" y="368.252">Url: string</text><line style="stroke:#181818;stroke-width:0.5;" x1="528" x2="631" y1="375.3281" y2="375.3281"/></g><!--link Product to Category--><g id="link_Product_Category"><path codeLine="48" d="M399.6545,213.2455 C410.7945,246.4555 414.4956,257.4654 423.3656,283.9054 " fill="none" id="Product-Category" style="stroke:#181818;stroke-width:1.0;"/><line style="stroke:#181818;stroke-width:1.0;" x1="396.4742" x2="388.2415" y1="203.7647" y2="198.0882"/><line style="stroke:#181818;stroke-width:1.0;" x1="396.4742" x2="399.6185" y1="203.7647" y2="194.2718"/><line style="stroke:#181818;stroke-width:1.0;" x1="396.4742" x2="393.93" y1="203.7647" y2="196.18"/><ellipse cx="398.3824" cy="209.4531" fill="none" rx="4" ry="4" style="stroke:#181818;stroke-width:1.0;"/><line style="stroke:#181818;stroke-width:1.0;" x1="428.4301" x2="420.8455" y1="286.4255" y2="288.9699"/><line style="stroke:#181818;stroke-width:1.0;" x1="427.4759" x2="419.8913" y1="283.5813" y2="286.1257"/><line style="stroke:#181818;stroke-width:1.0;" x1="423.3656" x2="425.91" y1="283.9054" y2="291.49"/><text fill="#000000" font-family="sans-serif" font-size="13" lengthAdjust="spacing" textLength="60" x="409.5" y="240.4951">belongs to</text></g><!--link Product to Price--><g id="link_Product_Price"><path codeLine="49" d="M325.8209,213.2673 C316.0509,242.7673 313.8153,249.5057 305.4753,274.6857 " fill="none" id="Product-Price" style="stroke:#181818;stroke-width:1.0;"/><line style="stroke:#181818;stroke-width:1.0;" x1="328.9649" x2="325.7842" y1="203.7743" y2="194.2936"/><line style="stroke:#181818;stroke-width:1.0;" x1="328.9649" x2="337.1758" y1="203.7743" y2="198.0664"/><line style="stroke:#181818;stroke-width:1.0;" x1="328.9649" x2="331.48" y1="203.7743" y2="196.18"/><ellipse cx="327.0785" cy="209.4701" fill="none" rx="4" ry="4" style="stroke:#181818;stroke-width:1.0;"/><line style="stroke:#181818;stroke-width:1.0;" x1="308.0148" x2="300.4205" y1="279.7405" y2="277.2252"/><line style="stroke:#181818;stroke-width:1.0;" x1="308.9581" x2="301.3638" y1="276.8927" y2="274.3773"/><line style="stroke:#181818;stroke-width:1.0;" x1="305.4753" x2="302.96" y1="274.6857" y2="282.28"/><text fill="#000000" font-family="sans-serif" font-size="13" lengthAdjust="spacing" textLength="21" x="321.5" y="240.4951">has</text></g><!--link Product to Stock--><g id="link_Product_Stock"><path codeLine="50" d="M259.9273,203.5324 C230.9573,232.0724 218.1696,244.6662 192.2396,270.2062 " fill="none" id="Product-Stock" style="stroke:#181818;stroke-width:1.0;"/><line style="stroke:#181818;stroke-width:1.0;" x1="267.051" x2="268.5392" y1="196.5144" y2="186.6258"/><line style="stroke:#181818;stroke-width:1.0;" x1="267.051" x2="276.9608" y1="196.5144" y2="195.1742"/><line style="stroke:#181818;stroke-width:1.0;" x1="267.051" x2="272.75" y1="196.5144" y2="190.9"/><ellipse cx="262.7768" cy="200.7252" fill="none" rx="4" ry="4" style="stroke:#181818;stroke-width:1.0;"/><line style="stroke:#181818;stroke-width:1.0;" x1="192.1967" x2="186.5829" y1="275.8629" y2="270.1633"/><line style="stroke:#181818;stroke-width:1.0;" x1="194.334" x2="188.7202" y1="273.7577" y2="268.0581"/><line style="stroke:#181818;stroke-width:1.0;" x1="192.2396" x2="186.54" y1="270.2062" y2="275.82"/><text fill="#000000" font-family="sans-serif" font-size="13" lengthAdjust="spacing" textLength="21" x="233.5" y="240.4951">has</text></g><!--link Product to Image--><g id="link_Product_Image"><path codeLine="51" d="M463.446,209.2598 C491.336,238.7598 496.3128,244.0213 520.1228,269.2013 " fill="none" id="Product-Image" style="stroke:#181818;stroke-width:1.0;"/><line style="stroke:#181818;stroke-width:1.0;" x1="456.576" x2="446.7201" y1="201.9933" y2="200.302"/><line style="stroke:#181818;stroke-width:1.0;" x1="456.576" x2="455.4399" y1="201.9933" y2="192.058"/><line style="stroke:#181818;stroke-width:1.0;" x1="456.576" x2="451.08" y1="201.9933" y2="196.18"/><ellipse cx="460.698" cy="206.3532" fill="none" rx="4" ry="4" style="stroke:#181818;stroke-width:1.0;"/><line style="stroke:#181818;stroke-width:1.0;" x1="526.9935" x2="536.8496" y1="276.4672" y2="278.1576"/><line style="stroke:#181818;stroke-width:1.0;" x1="526.9935" x2="528.1304" y1="276.4672" y2="286.4024"/><line style="stroke:#181818;stroke-width:1.0;" x1="526.9935" x2="532.49" y1="276.4672" y2="282.28"/><ellipse cx="522.8711" cy="272.1076" fill="none" rx="4" ry="4" style="stroke:#181818;stroke-width:1.0;"/><text fill="#000000" font-family="sans-serif" font-size="13" lengthAdjust="spacing" textLength="21" x="490.5" y="240.4951">has</text></g><!--link Stock to Color--><g id="link_Stock_Color"><path codeLine="52" d="M99.7527,409.0116 C89.6727,434.4216 87.6888,439.4133 78.5688,462.4133 " fill="none" id="Stock-Color" style="stroke:#181818;stroke-width:1.0;"/><line style="stroke:#181818;stroke-width:1.0;" x1="103.4401" x2="100.8128" y1="399.7163" y2="390.0676"/><line style="stroke:#181818;stroke-width:1.0;" x1="103.4401" x2="111.9672" y1="399.7163" y2="394.4924"/><line style="stroke:#181818;stroke-width:1.0;" x1="103.4401" x2="106.39" y1="399.7163" y2="392.28"/><ellipse cx="101.2276" cy="405.2935" fill="none" rx="4" ry="4" style="stroke:#181818;stroke-width:1.0;"/><line style="stroke:#181818;stroke-width:1.0;" x1="80.8128" x2="73.3761" y1="467.6061" y2="464.6572"/><line style="stroke:#181818;stroke-width:1.0;" x1="81.9186" x2="74.4819" y1="464.8173" y2="461.8685"/><line style="stroke:#181818;stroke-width:1.0;" x1="78.5688" x2="75.62" y1="462.4133" y2="469.85"/><text fill="#000000" font-family="sans-serif" font-size="13" lengthAdjust="spacing" textLength="21" x="95.5" y="436.4951">has</text></g><!--link Stock to Size--><g id="link_Stock_Size"><path codeLine="53" d="M159.2473,409.0116 C169.3273,434.4216 171.3112,439.4133 180.4312,462.4133 " fill="none" id="Stock-Size" style="stroke:#181818;stroke-width:1.0;"/><line style="stroke:#181818;stroke-width:1.0;" x1="155.5599" x2="147.0328" y1="399.7163" y2="394.4924"/><line style="stroke:#181818;stroke-width:1.0;" x1="155.5599" x2="158.1872" y1="399.7163" y2="390.0676"/><line style="stroke:#181818;stroke-width:1.0;" x1="155.5599" x2="152.61" y1="399.7163" y2="392.28"/><ellipse cx="157.7724" cy="405.2935" fill="none" rx="4" ry="4" style="stroke:#181818;stroke-width:1.0;"/><line style="stroke:#181818;stroke-width:1.0;" x1="185.6239" x2="178.1872" y1="464.6572" y2="467.6061"/><line style="stroke:#181818;stroke-width:1.0;" x1="184.5181" x2="177.0814" y1="461.8685" y2="464.8173"/><line style="stroke:#181818;stroke-width:1.0;" x1="180.4312" x2="183.38" y1="462.4133" y2="469.85"/><text fill="#000000" font-family="sans-serif" font-size="13" lengthAdjust="spacing" textLength="21" x="172.5" y="436.4951">has</text></g><!--SRC=[bP9DJiCm48NtESNiMA1Um498gDvK0jIgS03Z3Ab5xAd6aqLeUtSQcq1-YbGsaVnc_BtdcTo09czSW2SgiGQjDRmJW-mGbkGziaLOCmb9kyUYm21Esauf6ojmA01kOLKgYC8kLEduR3oEX3KxYvEcfH6iYDk9l1Mo7nDDOxJizk8eZ16CfXFr6QMW-xuuZpcHDnL61OykobqwhChxulIJFzcazBFyYKmryKpTka-SYPl69AG25sJWa11Np6UGwOp_ruKqriit7ZmrGHIKQ9qtTHvNmup1jXT8_J8oRCpwmpmDzShzlt8z9FG_puaMY-Fnrrp16zOKgWX2qwRyLWKx4wUblCjvYGxV8NCfj_MUQJiN2ca9MVy2]--></g></svg>